<?xml version="1.0" encoding="UTF-8" standalone="no"?><!DOCTYPE svg PUBLIC "-//W3C//DTD SVG 1.1//EN" "http://www.w3.org/Graphics/SVG/1.1/DTD/svg11.dtd"><svg width="100%" height="100%" viewBox="0 0 417 209" version="1.1" xmlns="http://www.w3.org/2000/svg" xmlns:xlink="http://www.w3.org/1999/xlink" xml:space="preserve" xmlns:serif="http://www.serif.com/" style="fill-rule:evenodd;clip-rule:evenodd;stroke-linecap:round;stroke-miterlimit:3;"><g><path d="M213.264,20.316c-0,-7.62 -6.186,-13.806 -13.806,-13.806l-71,0c-7.619,0 -13.805,6.186 -13.805,13.806l-0,167.701c-0,7.62 6.186,13.806 13.805,13.806l71,-0c7.62,-0 13.806,-6.186 13.806,-13.806l-0,-167.701Z" style="fill:#fff;"/><clipPath id="_clip1"><path d="M213.264,20.316c-0,-7.62 -6.186,-13.806 -13.806,-13.806l-71,0c-7.619,0 -13.805,6.186 -13.805,13.806l-0,167.701c-0,7.62 6.186,13.806 13.805,13.806l71,-0c7.62,-0 13.806,-6.186 13.806,-13.806l-0,-167.701Z"/></clipPath><g clip-path="url(#_clip1)"><path d="M152.847,16.927l22.917,0" style="fill:none;stroke:#000;stroke-width:4.17px;"/><circle cx="164.305" cy="186.719" r="7.986" style="fill:#fff;stroke:#000;stroke-width:3.55px;"/><g><path d="M159.816,63.934c0.003,-0.001 8.282,-0.001 8.284,-0c8.282,1.885 14.47,9.3 14.47,18.148c0,10.273 -8.34,18.612 -18.612,18.612c-10.272,0 -18.612,-8.339 -18.612,-18.612c0,-8.848 6.189,-16.263 14.47,-18.148Z" style="fill:#f891cf;stroke:#000;stroke-width:2.08px;stroke-linejoin:round;stroke-miterlimit:1.5;"/><path d="M161.811,60.65c-0.402,-0.484 -0.644,-1.105 -0.644,-1.783c0,-1.54 1.251,-2.791 2.791,-2.791c1.541,0 2.791,1.251 2.791,2.791c0,0.678 -0.242,1.299 -0.644,1.783l1.995,-0l0,3.284l-8.284,-0l0,-3.284l1.995,-0Zm3.491,-0c0.54,-0.408 0.889,-1.055 0.889,-1.783c0,-1.232 -1,-2.233 -2.233,-2.233c-1.232,0 -2.233,1.001 -2.233,2.233c0,0.728 0.349,1.375 0.889,1.783l2.688,-0Z" style="fill:none;stroke:#000;stroke-width:2.08px;stroke-linejoin:round;stroke-miterlimit:1.5;"/><rect x="163.807" y="106.944" width="0.303" height="6.944" style="fill:none;stroke:#000;stroke-width:2.08px;stroke-linejoin:round;stroke-miterlimit:1.5;"/><path d="M151.774,103.72l-0.262,-0.151l-3.473,6.014l0.263,0.151l3.472,-6.014Z" style="fill:none;stroke:#000;stroke-width:2.08px;stroke-linejoin:round;stroke-miterlimit:1.5;"/><path d="M142.703,94.76l-0.151,-0.262l-6.014,3.472l0.151,0.263l6.014,-3.473Z" style="fill:none;stroke:#000;stroke-width:2.08px;stroke-linejoin:round;stroke-miterlimit:1.5;"/><path d="M139.328,82.466l-0,-0.304l-6.945,0l0,0.304l6.945,-0Z" style="fill:none;stroke:#000;stroke-width:2.08px;stroke-linejoin:round;stroke-miterlimit:1.5;"/><path d="M142.552,70.13l0.151,-0.263l-6.014,-3.472l-0.151,0.263l6.014,3.472Z" style="fill:none;stroke:#000;stroke-width:2.08px;stroke-linejoin:round;stroke-miterlimit:1.5;"/><path d="M151.512,61.059l0.262,-0.152l-3.472,-6.014l-0.263,0.152l3.473,6.014Z" style="fill:none;stroke:#000;stroke-width:2.08px;stroke-linejoin:round;stroke-miterlimit:1.5;"/><rect x="163.807" y="36.111" width="0.303" height="21.572" style="fill:none;stroke:#000;stroke-width:2.08px;stroke-linejoin:round;stroke-miterlimit:1.5;"/><path d="M176.142,60.907l0.263,0.152l3.472,-6.014l-0.263,-0.152l-3.472,6.014Z" style="fill:none;stroke:#000;stroke-width:2.08px;stroke-linejoin:round;stroke-miterlimit:1.5;"/><path d="M185.213,69.867l0.152,0.263l6.014,-3.472l-0.152,-0.263l-6.014,3.472Z" style="fill:none;stroke:#000;stroke-width:2.08px;stroke-linejoin:round;stroke-miterlimit:1.5;"/><path d="M188.589,82.162l-0,0.304l6.944,-0l0,-0.304l-6.944,0Z" style="fill:none;stroke:#000;stroke-width:2.08px;stroke-linejoin:round;stroke-miterlimit:1.5;"/><path d="M185.365,94.498l-0.152,0.262l6.014,3.473l0.152,-0.263l-6.014,-3.472Z" style="fill:none;stroke:#000;stroke-width:2.08px;stroke-linejoin:round;stroke-miterlimit:1.5;"/><path d="M176.405,103.569l-0.263,0.151l3.472,6.014l0.263,-0.151l-3.472,-6.014Z" style="fill:none;stroke:#000;stroke-width:2.08px;stroke-linejoin:round;stroke-miterlimit:1.5;"/></g></g><path d="M213.264,20.316c-0,-7.62 -6.186,-13.806 -13.806,-13.806l-71,0c-7.619,0 -13.805,6.186 -13.805,13.806l-0,167.701c-0,7.62 6.186,13.806 13.805,13.806l71,-0c7.62,-0 13.806,-6.186 13.806,-13.806l-0,-167.701Z" style="fill:none;stroke:#000;stroke-width:4.17px;stroke-linecap:butt;"/><g><g><path d="M317.292,201.823l5.555,-0" style="fill:none;stroke:#000;stroke-width:4.17px;"/><path d="M93.819,201.823l217.223,-0" style="fill:none;stroke:#000;stroke-width:4.17px;"/></g></g></g><g><circle cx="242.443" cy="136.464" r="65.359" style="fill:#ffe7f4;"/><path d="M242.443,71.105c36.072,-0 65.359,29.286 65.359,65.359c-0,36.073 -29.287,65.359 -65.359,65.359c-36.073,-0 -65.36,-29.286 -65.36,-65.359c0,-36.073 29.287,-65.359 65.36,-65.359Zm-24.644,69.866l3.966,12.208l12.836,0l-10.384,7.545l3.966,12.208l-10.384,-7.545l-10.385,7.545l3.967,-12.208l-10.385,-7.545l12.836,0l3.967,-12.208Zm43.37,-47.71l5.663,17.43l18.327,-0l-14.827,10.772l5.663,17.429l-14.826,-10.772l-14.826,10.772l5.663,-17.429l-14.827,-10.772l18.327,-0l5.663,-17.43Z" style="fill:url(#_Linear2);"/><path d="M234.902,61.2c-1.411,-1.698 -2.261,-3.88 -2.261,-6.26c0,-5.409 4.392,-9.801 9.802,-9.801c5.409,-0 9.801,4.392 9.801,9.801c0,2.38 -0.849,4.562 -2.261,6.26l7.005,0l0,11.532l-29.091,-0l-0,-11.532l7.005,0Zm12.261,0c1.895,-1.432 3.121,-3.704 3.121,-6.26c-0,-4.327 -3.514,-7.841 -7.841,-7.841c-4.328,0 -7.842,3.514 -7.842,7.841c0,2.556 1.226,4.828 3.121,6.26l9.441,0Z" style="fill:#f8b5dc;"/></g><defs><linearGradient id="_Linear2" x1="0" y1="0" x2="1" y2="0" gradientUnits="userSpaceOnUse" gradientTransform="matrix(3.65685e-14,-129.091,129.091,3.65685e-14,242.443,201.823)"><stop offset="0" style="stop-color:#f564be;stop-opacity:1"/><stop offset="0.2" style="stop-color:#f676c5;stop-opacity:1"/><stop offset="0.41" style="stop-color:#f789cc;stop-opacity:1"/><stop offset="1" style="stop-color:#f891cf;stop-opacity:1"/></linearGradient></defs></svg>